<?xml version="1.0" standalone="no"?>
<!DOCTYPE svg PUBLIC "-//W3C//DTD SVG 20010904//EN"
 "http://www.w3.org/TR/2001/REC-SVG-20010904/DTD/svg10.dtd">
<svg version="1.0" xmlns="http://www.w3.org/2000/svg"
 width="64.000000pt" height="64.000000pt" viewBox="0 0 64.000000 64.000000"
 preserveAspectRatio="xMidYMid meet">

<g transform="translate(0.000000,64.000000) scale(0.100000,-0.100000)"
fill="#000000" stroke="none">
<path d="M232 567 c-45 -14 -118 -80 -145 -131 -30 -58 -31 -174 0 -231 48
-90 138 -145 238 -145 64 0 133 25 173 62 19 19 22 19 22 4 0 -9 -7 -19 -15
-22 -8 -4 -15 -10 -15 -16 0 -5 10 -2 22 6 12 9 30 16 40 16 14 0 18 8 18 35
0 28 5 38 25 47 22 10 24 15 19 50 -5 29 -2 43 11 58 17 19 17 21 0 40 -13 15
-16 29 -11 58 5 35 3 40 -19 50 -20 9 -25 19 -25 47 0 27 -4 35 -18 35 -10 0
-28 7 -40 16 -12 8 -22 11 -22 6 0 -6 7 -12 15 -16 8 -3 15 -13 15 -22 0 -15
-3 -15 -22 4 -59 55 -179 77 -266 49z"/>
</g>
</svg>
